<?xml version="1.0" encoding="UTF-8" standalone="no"?><svg xmlns="http://www.w3.org/2000/svg" xmlns:xlink="http://www.w3.org/1999/xlink" contentScriptType="application/ecmascript" contentStyleType="text/css" height="114px" preserveAspectRatio="none" style="width:136px;height:114px;background:#FFFFFF;" version="1.1" viewBox="0 0 136 114" width="136px" zoomAndPan="magnify"><defs><filter height="300%" id="ftsqxotmq1nfc" width="300%" x="-1" y="-1"><feGaussianBlur result="blurOut" stdDeviation="2.0"/><feColorMatrix in="blurOut" result="blurOut2" type="matrix" values="0 0 0 0 0 0 0 0 0 0 0 0 0 0 0 0 0 0 .4 0"/><feOffset dx="4.0" dy="4.0" in="blurOut2" result="blurOut3"/><feBlend in="SourceGraphic" in2="blurOut3" mode="normal"/></filter></defs><g><!--MD5=[bea5b0d46523efab5ea1c1d339f396f0]
class Message--><rect codeLine="2" fill="#FEFECE" filter="url(#ftsqxotmq1nfc)" height="93.3267" id="Message" style="stroke:#A80036;stroke-width:1.5;" width="115" x="7" y="7"/><ellipse cx="36.4" cy="23" fill="#ADD1B2" rx="11" ry="11" style="stroke:#A80036;stroke-width:1.0;"/><path d="M36.3063,16.3281 Q34.3844,16.3281 33.2125,18.1094 Q32.0094,19.9063 32.0094,22.9375 Q32.0094,26.3438 33.2281,28.125 Q34.3063,29.7813 36.1031,29.7813 Q37.8219,29.7813 38.7906,28.8594 Q39.8688,27.8125 40.025,25.5469 Q40.025,25.0938 39.7594,24.8281 Q39.5563,24.5781 39.1813,24.5469 Q38.8219,24.5469 38.5719,24.75 Q38.275,25.0156 38.275,25.4375 Q38.2438,26.7969 37.6656,27.5156 Q37.15,28.1875 36.2438,28.1875 Q35.1344,28.1875 34.4469,26.7813 Q33.7281,25.3125 33.7281,22.9063 Q33.7281,20.375 34.6031,19.0156 Q35.3375,17.9219 36.4313,17.9219 Q37.0406,17.9219 37.525,18.4375 Q38.0719,19.0313 38.1969,20.0625 Q38.2594,20.8594 39.1656,20.7344 Q40.0094,20.6094 39.9625,19.8594 Q39.775,18.3125 38.9781,17.4063 Q38.025,16.3281 36.3063,16.3281 Z " fill="#000000"/><text fill="#000000" font-family="sans-serif" font-size="12" lengthAdjust="spacing" textLength="51" x="53.6" y="28.6045">Message</text><line style="stroke:#A80036;stroke-width:1.5;" x1="8" x2="121" y1="39" y2="39"/><text fill="#000000" font-family="sans-serif" font-size="11" lengthAdjust="spacing" textLength="83" x="13" y="55.6919">Destination []byte</text><text fill="#000000" font-family="sans-serif" font-size="11" lengthAdjust="spacing" textLength="103" x="13" y="70.8008">CapsulatedKey []byte</text><text fill="#000000" font-family="sans-serif" font-size="11" lengthAdjust="spacing" textLength="52" x="13" y="85.9097">Data []byte</text><line style="stroke:#A80036;stroke-width:1.5;" x1="8" x2="121" y1="92.3267" y2="92.3267"/><!--MD5=[8b8063fca60cf0dcf273f3ea653260a8]
@startuml message

class Message {
    Destination []byte
    CapsulatedKey []byte
    Data []byte
}

@enduml

PlantUML version 1.2022.0(Wed Jan 12 01:16:42 KST 2022)
(GPL source distribution)
Java Runtime: OpenJDK Runtime Environment
JVM: OpenJDK 64-Bit Server VM
Default Encoding: MS949
Language: ko
Country: KR
--></g></svg>