<?xml version="1.0" encoding="UTF-8" standalone="no"?><svg xmlns="http://www.w3.org/2000/svg" xmlns:xlink="http://www.w3.org/1999/xlink" contentScriptType="application/ecmascript" contentStyleType="text/css" height="99px" preserveAspectRatio="none" style="width:139px;height:99px;background:#FFFFFF;" version="1.1" viewBox="0 0 139 99" width="139px" zoomAndPan="magnify"><defs><filter height="300%" id="fidd8jd4jv40m" width="300%" x="-1" y="-1"><feGaussianBlur result="blurOut" stdDeviation="2.0"/><feColorMatrix in="blurOut" result="blurOut2" type="matrix" values="0 0 0 0 0 0 0 0 0 0 0 0 0 0 0 0 0 0 .4 0"/><feOffset dx="4.0" dy="4.0" in="blurOut2" result="blurOut3"/><feBlend in="SourceGraphic" in2="blurOut3" mode="normal"/></filter></defs><g><!--MD5=[fba06805c142af105d5fcfd64b1eff32]
class AppTable--><rect codeLine="2" fill="#FEFECE" filter="url(#fidd8jd4jv40m)" height="78.2178" id="AppTable" style="stroke:#A80036;stroke-width:1.5;" width="118" x="7" y="7"/><ellipse cx="37.3" cy="23" fill="#ADD1B2" rx="11" ry="11" style="stroke:#A80036;stroke-width:1.0;"/><path d="M37.2063,16.3281 Q35.2844,16.3281 34.1125,18.1094 Q32.9094,19.9063 32.9094,22.9375 Q32.9094,26.3438 34.1281,28.125 Q35.2063,29.7813 37.0031,29.7813 Q38.7219,29.7813 39.6906,28.8594 Q40.7688,27.8125 40.925,25.5469 Q40.925,25.0938 40.6594,24.8281 Q40.4563,24.5781 40.0813,24.5469 Q39.7219,24.5469 39.4719,24.75 Q39.175,25.0156 39.175,25.4375 Q39.1438,26.7969 38.5656,27.5156 Q38.05,28.1875 37.1438,28.1875 Q36.0344,28.1875 35.3469,26.7813 Q34.6281,25.3125 34.6281,22.9063 Q34.6281,20.375 35.5031,19.0156 Q36.2375,17.9219 37.3313,17.9219 Q37.9406,17.9219 38.425,18.4375 Q38.9719,19.0313 39.0969,20.0625 Q39.1594,20.8594 40.0656,20.7344 Q40.9094,20.6094 40.8625,19.8594 Q40.675,18.3125 39.8781,17.4063 Q38.925,16.3281 37.2063,16.3281 Z " fill="#000000"/><text fill="#000000" font-family="sans-serif" font-size="12" lengthAdjust="spacing" textLength="52" x="54.7" y="28.6045">AppTable</text><line style="stroke:#A80036;stroke-width:1.5;" x1="8" x2="124" y1="39" y2="39"/><text fill="#000000" font-family="sans-serif" font-size="11" lengthAdjust="spacing" textLength="59" x="13" y="55.6919">AppID []byte</text><text fill="#000000" font-family="sans-serif" font-size="11" lengthAdjust="spacing" textLength="106" x="13" y="70.8008">table map[[]byte][]byte</text><line style="stroke:#A80036;stroke-width:1.5;" x1="8" x2="124" y1="77.2178" y2="77.2178"/><!--MD5=[f117b02988774b66f36e230a8f3562b1]
@startuml AppTable

class AppTable {
    AppID []byte
    table map[[]byte][]byte
}

@enduml

PlantUML version 1.2022.0(Wed Jan 12 01:16:42 KST 2022)
(GPL source distribution)
Java Runtime: OpenJDK Runtime Environment
JVM: OpenJDK 64-Bit Server VM
Default Encoding: MS949
Language: ko
Country: KR
--></g></svg>