<?xml version="1.0" encoding="UTF-8" standalone="no"?><svg xmlns="http://www.w3.org/2000/svg" xmlns:xlink="http://www.w3.org/1999/xlink" contentScriptType="application/ecmascript" contentStyleType="text/css" height="456px" preserveAspectRatio="none" style="width:418px;height:456px;background:#FFFFFF;" version="1.1" viewBox="0 0 418 456" width="418px" zoomAndPan="magnify"><defs><filter height="300%" id="f4vov1q872ygg" width="300%" x="-1" y="-1"><feGaussianBlur result="blurOut" stdDeviation="2.0"/><feColorMatrix in="blurOut" result="blurOut2" type="matrix" values="0 0 0 0 0 0 0 0 0 0 0 0 0 0 0 0 0 0 .4 0"/><feOffset dx="4.0" dy="4.0" in="blurOut2" result="blurOut3"/><feBlend in="SourceGraphic" in2="blurOut3" mode="normal"/></filter></defs><g><!--MD5=[c16d822e175d79abcb56292e8c5a0d37]
cluster Network--><path d="M73.0962,120.0378 C79.3134,109.3162 87.9615,107.3188 95.4332,118.7742 C101.0053,110.4188 106.6148,111.4964 112.5592,118.3551 C120.0364,109.7361 126.6765,110.6419 132.4064,120.2569 C139.1918,110.1218 146.3385,111.2668 152.1946,121.1744 C156.5445,110.1516 165.0925,109.6864 171.5007,119.2434 C178.167,109.2684 185.7998,110.1253 192.4058,119.3091 C196.953,110.1418 204.9652,109.3618 211.649,116.8389 C217.7464,108.1327 223.413,109.0041 229.2447,117.1169 C235.7843,109.2693 243.8895,109.8961 247.7137,119.9227 C253.6098,109.6281 262.1931,109.9627 269.0267,118.8829 C274.6867,110.9518 282.7389,110.3594 288.2096,119.1006 C293.3856,110.5713 302.4842,108.632 308.185,118.5317 C314.1129,110.2152 320.8865,108.5548 327.0913,118.2409 C337.5675,107.8585 348.4299,110.9793 351.5,125.5 C352.6792,125.3384 353.2683,125.7174 353.1123,126.9954 C364.5448,133.9661 365.1948,144.5076 353.3018,151.6575 C362.6261,155.4635 364.4656,164.957 357.3403,172.0246 C367.748,179.2574 368.4891,189.2061 356.7866,195.9267 C367.698,203.5356 365.8253,213.2177 355.819,219.9853 C367.2679,225.5085 367.0014,232.827 357.457,240.0629 C369.1603,248.3132 369.1786,257.5223 356.9436,265.2852 C366.7855,270.8811 365.0428,280.6233 355.8853,285.21 C366.7576,300.7925 363.8508,310.6655 344.5,314.5 C345.6032,313.3115 346.5501,313.5163 347.0232,315.0781 C342.3088,325.492 333.9582,327.2417 325.6321,319.2834 C321.0805,328.4773 312.777,327.5793 308.6627,318.869 C303.5107,330.3583 293.8688,329.8227 287.9878,319.562 C283.1976,329.9331 273.2947,328.8383 267.5957,320.5554 C262.4887,330.9606 255.0226,331.8489 247.86,322.6219 C244.3097,331.871 237.2095,332.3327 231.3696,324.8828 C225.6781,336.9814 214.9459,336.0628 209.1791,324.9547 C203.1656,333.2055 193.3877,334.0375 189.3662,322.9172 C183.186,333.2647 175.1884,332.4813 169.7143,322.2431 C162.619,330.848 156.25,330.3638 150.9914,320.3919 C145.6809,327.9138 139.3381,328.2958 134.2242,320.181 C127.1455,330.7255 117.48,330.0765 112.4752,318.1717 C107.1815,327.1221 99.8749,325.1139 95.218,317.5079 C80.7862,327.3199 70.4996,325.6968 65.5,307.5 C65.7755,307.264 66.062,307.2651 66.2022,307.6524 C55.1559,301.6282 58.1979,292.8732 66.6358,287.2633 C53.3203,281.9458 53.7138,272.4448 63.7258,264.1858 C53.2383,258.1378 51.8569,250.1676 61.397,242.0159 C49.965,237.0161 49.2873,226.1501 57.9165,218.2165 C47.133,210.9048 47.6298,203.9296 58.2789,196.9837 C45.6299,187.4918 46.5796,178.0387 60.8239,171.2014 C50.7255,162.0733 52.5919,153.837 65.3669,149.4965 C54.2822,138.334 53.5773,122.7569 72.5,118.5 C73.4184,118.707 73.6233,119.2703 73.0962,120.0378 " fill="#FFFFFF" filter="url(#f4vov1q872ygg)" style="stroke:#000000;stroke-width:1.5;"/><text fill="#000000" font-family="sans-serif" font-size="14" font-weight="bold" lengthAdjust="spacing" textLength="58" x="179.5" y="139.6533">Network</text><!--MD5=[77ff5de4e183df66aea55e43c7d4d072]
entity RelayNode1--><polygon fill="#FEFECE" filter="url(#f4vov1q872ygg)" points="74,267.5,84,257.5,191,257.5,191,296.7295,181,306.7295,74,306.7295,74,267.5" style="stroke:#000000;stroke-width:1.5;"/><line style="stroke:#000000;stroke-width:1.5;" x1="181" x2="191" y1="267.5" y2="257.5"/><line style="stroke:#000000;stroke-width:1.5;" x1="74" x2="181" y1="267.5" y2="267.5"/><line style="stroke:#000000;stroke-width:1.5;" x1="181" x2="181" y1="267.5" y2="306.7295"/><text fill="#000000" font-family="sans-serif" font-size="14" lengthAdjust="spacing" textLength="77" x="89" y="293.6533">RelayNode1</text><!--MD5=[5199ce9fb557eac66ecb97ad23014eb8]
entity RelayNode2--><polygon fill="#FEFECE" filter="url(#f4vov1q872ygg)" points="150,158.5,160,148.5,267,148.5,267,187.7295,257,197.7295,150,197.7295,150,158.5" style="stroke:#000000;stroke-width:1.5;"/><line style="stroke:#000000;stroke-width:1.5;" x1="257" x2="267" y1="158.5" y2="148.5"/><line style="stroke:#000000;stroke-width:1.5;" x1="150" x2="257" y1="158.5" y2="158.5"/><line style="stroke:#000000;stroke-width:1.5;" x1="257" x2="257" y1="158.5" y2="197.7295"/><text fill="#000000" font-family="sans-serif" font-size="14" lengthAdjust="spacing" textLength="77" x="165" y="184.6533">RelayNode2</text><!--MD5=[b8a1fc5f11d819c3afbbb6882687ceb1]
entity RelayNode3--><polygon fill="#FEFECE" filter="url(#f4vov1q872ygg)" points="226,267.5,236,257.5,343,257.5,343,296.7295,333,306.7295,226,306.7295,226,267.5" style="stroke:#000000;stroke-width:1.5;"/><line style="stroke:#000000;stroke-width:1.5;" x1="333" x2="343" y1="267.5" y2="257.5"/><line style="stroke:#000000;stroke-width:1.5;" x1="226" x2="333" y1="267.5" y2="267.5"/><line style="stroke:#000000;stroke-width:1.5;" x1="333" x2="333" y1="267.5" y2="306.7295"/><text fill="#000000" font-family="sans-serif" font-size="14" lengthAdjust="spacing" textLength="77" x="241" y="293.6533">RelayNode3</text><!--MD5=[094c70cd24e635499b5b5916c9e5319b]
entity LeafNode1--><ellipse cx="40.5" cy="376" fill="#FEFECE" filter="url(#f4vov1q872ygg)" rx="8" ry="8" style="stroke:#A80036;stroke-width:1.5;"/><path d="M40.5,384 L40.5,411 M27.5,392 L53.5,392 M40.5,411 L27.5,426 M40.5,411 L53.5,426 " fill="none" filter="url(#f4vov1q872ygg)" style="stroke:#A80036;stroke-width:1.5;"/><text fill="#000000" font-family="sans-serif" font-size="14" lengthAdjust="spacing" textLength="69" x="6" y="447.6533">LeafNode1</text><!--MD5=[fb73457105e9b5c924805b29fed34979]
entity LeafNode2--><ellipse cx="144.5" cy="376" fill="#FEFECE" filter="url(#f4vov1q872ygg)" rx="8" ry="8" style="stroke:#A80036;stroke-width:1.5;"/><path d="M144.5,384 L144.5,411 M131.5,392 L157.5,392 M144.5,411 L131.5,426 M144.5,411 L157.5,426 " fill="none" filter="url(#f4vov1q872ygg)" style="stroke:#A80036;stroke-width:1.5;"/><text fill="#000000" font-family="sans-serif" font-size="14" lengthAdjust="spacing" textLength="69" x="110" y="447.6533">LeafNode2</text><!--MD5=[6bda01239a31634f4e947a7268c6d586]
entity LeafNode3--><ellipse cx="156.5" cy="14" fill="#FEFECE" filter="url(#f4vov1q872ygg)" rx="8" ry="8" style="stroke:#A80036;stroke-width:1.5;"/><path d="M156.5,22 L156.5,49 M143.5,30 L169.5,30 M156.5,49 L143.5,64 M156.5,49 L169.5,64 " fill="none" filter="url(#f4vov1q872ygg)" style="stroke:#A80036;stroke-width:1.5;"/><text fill="#000000" font-family="sans-serif" font-size="14" lengthAdjust="spacing" textLength="69" x="122" y="85.6533">LeafNode3</text><!--MD5=[ed2d9c411e5fca6ac6b16b5f7c6e98b9]
entity LeafNode4--><ellipse cx="260.5" cy="14" fill="#FEFECE" filter="url(#f4vov1q872ygg)" rx="8" ry="8" style="stroke:#A80036;stroke-width:1.5;"/><path d="M260.5,22 L260.5,49 M247.5,30 L273.5,30 M260.5,49 L247.5,64 M260.5,49 L273.5,64 " fill="none" filter="url(#f4vov1q872ygg)" style="stroke:#A80036;stroke-width:1.5;"/><text fill="#000000" font-family="sans-serif" font-size="14" lengthAdjust="spacing" textLength="69" x="226" y="85.6533">LeafNode4</text><!--MD5=[dc9aed3ce901971288d47fb6e2e14626]
entity LeafNode5--><ellipse cx="272.5" cy="376" fill="#FEFECE" filter="url(#f4vov1q872ygg)" rx="8" ry="8" style="stroke:#A80036;stroke-width:1.5;"/><path d="M272.5,384 L272.5,411 M259.5,392 L285.5,392 M272.5,411 L259.5,426 M272.5,411 L285.5,426 " fill="none" filter="url(#f4vov1q872ygg)" style="stroke:#A80036;stroke-width:1.5;"/><text fill="#000000" font-family="sans-serif" font-size="14" lengthAdjust="spacing" textLength="69" x="238" y="447.6533">LeafNode5</text><!--MD5=[99b18f3e87cc4b91efbdd0930d5f438d]
entity LeafNode6--><ellipse cx="376.5" cy="376" fill="#FEFECE" filter="url(#f4vov1q872ygg)" rx="8" ry="8" style="stroke:#A80036;stroke-width:1.5;"/><path d="M376.5,384 L376.5,411 M363.5,392 L389.5,392 M376.5,411 L363.5,426 M376.5,411 L389.5,426 " fill="none" filter="url(#f4vov1q872ygg)" style="stroke:#A80036;stroke-width:1.5;"/><text fill="#000000" font-family="sans-serif" font-size="14" lengthAdjust="spacing" textLength="69" x="342" y="447.6533">LeafNode6</text><!--MD5=[1ee05d69f0d972eab3aca5bfbbb54a94]
link RelayNode1 to RelayNode2--><path d="M160.75,257.32 C174.77,241.13 190.3,219.58 200.38,202.45 " fill="none" id="RelayNode1-to-RelayNode2" style="stroke:#A80036;stroke-width:1.0;"/><polygon fill="#A80036" points="203.07,197.75,195.1277,203.574,200.5862,202.0895,202.0708,207.548,203.07,197.75" style="stroke:#A80036;stroke-width:1.0;"/><!--MD5=[ed94b84acdef09f04893025d3985737a]
link RelayNode2 to RelayNode1--><path d="M180.83,197.75 C166.94,213.95 151.43,235.5 141.25,252.62 " fill="none" id="RelayNode2-to-RelayNode1" style="stroke:#A80036;stroke-width:1.0;"/><polygon fill="#A80036" points="138.52,257.32,146.485,251.527,141.0207,252.9903,139.5574,247.5259,138.52,257.32" style="stroke:#A80036;stroke-width:1.0;"/><!--MD5=[369681fd513c473dfe353583e86d93ef]
link RelayNode1 to RelayNode3--><path d="M191.28,299.43 C201.1,300.51 210.92,300.66 220.74,299.9 " fill="none" id="RelayNode1-to-RelayNode3" style="stroke:#A80036;stroke-width:1.0;"/><polygon fill="#A80036" points="225.87,299.41,216.5334,296.275,220.8922,299.8807,217.2865,304.2395,225.87,299.41" style="stroke:#A80036;stroke-width:1.0;"/><!--MD5=[01f7b162632f8ca26761768a0fe3637a]
link RelayNode3 to RelayNode1--><path d="M225.87,264.59 C216.05,263.5 206.24,263.33 196.42,264.09 " fill="none" id="RelayNode3-to-RelayNode1" style="stroke:#A80036;stroke-width:1.0;"/><polygon fill="#A80036" points="191.28,264.57,200.6076,267.7315,196.2591,264.1135,199.8772,259.7649,191.28,264.57" style="stroke:#A80036;stroke-width:1.0;"/><!--MD5=[c43976a60a72538a1438b6d311c6a2df]
link RelayNode2 to RelayNode3--><path d="M214.56,197.75 C223.86,214.23 239.32,236.24 253.66,253.49 " fill="none" id="RelayNode2-to-RelayNode3" style="stroke:#A80036;stroke-width:1.0;"/><polygon fill="#A80036" points="256.89,257.32,254.1459,247.8611,253.6667,253.4977,248.0302,253.0184,256.89,257.32" style="stroke:#A80036;stroke-width:1.0;"/><!--MD5=[cbb2799999f484bd350b07599046d41a]
link RelayNode3 to RelayNode2--><path d="M279.11,257.32 C269.97,240.85 254.52,218.84 240.07,201.58 " fill="none" id="RelayNode3-to-RelayNode2" style="stroke:#A80036;stroke-width:1.0;"/><polygon fill="#A80036" points="236.81,197.75,239.5921,207.1977,240.0487,201.5593,245.6871,202.0159,236.81,197.75" style="stroke:#A80036;stroke-width:1.0;"/><!--MD5=[a38e7f5c63a53286659c8edbf38e4060]
reverse link RelayNode1 to LeafNode1--><path d="M111.99,310.75 C99.93,327.07 84.46,348.01 71,366.23 " fill="none" id="RelayNode1-backto-LeafNode1" style="stroke:#A80036;stroke-width:1.0;"/><polygon fill="#A80036" points="114.98,306.71,106.4104,311.564,112.0052,310.7288,112.8405,316.3237,114.98,306.71" style="stroke:#A80036;stroke-width:1.0;"/><!--MD5=[6ce41409c4912b0091a5cb8bed880423]
reverse link RelayNode1 to LeafNode2--><path d="M135.3,312.01 C136.85,328.13 138.81,348.47 140.52,366.23 " fill="none" id="RelayNode1-backto-LeafNode2" style="stroke:#A80036;stroke-width:1.0;"/><polygon fill="#A80036" points="134.79,306.71,131.6815,316.0554,135.2748,311.6864,139.6438,315.2797,134.79,306.71" style="stroke:#A80036;stroke-width:1.0;"/><!--MD5=[06abc8875995a0fdf7ea17085a2b4ded]
link LeafNode3 to RelayNode2--><path d="M173.67,88.61 C181.18,106.58 189.8,127.22 196.59,143.47 " fill="none" id="LeafNode3-to-RelayNode2" style="stroke:#A80036;stroke-width:1.0;"/><polygon fill="#A80036" points="198.63,148.37,198.85,138.5236,196.7019,143.7567,191.4687,141.6086,198.63,148.37" style="stroke:#A80036;stroke-width:1.0;"/><!--MD5=[a9bec109de91fa8236886681905954e7]
link LeafNode4 to RelayNode2--><path d="M243.33,88.61 C235.82,106.58 227.2,127.22 220.41,143.47 " fill="none" id="LeafNode4-to-RelayNode2" style="stroke:#A80036;stroke-width:1.0;"/><polygon fill="#A80036" points="218.37,148.37,225.5313,141.6086,220.2981,143.7567,218.15,138.5236,218.37,148.37" style="stroke:#A80036;stroke-width:1.0;"/><!--MD5=[8ab20df271f4f30a70f833aa198a4c33]
reverse link RelayNode3 to LeafNode5--><path d="M281.7,312.01 C280.15,328.13 278.19,348.47 276.48,366.23 " fill="none" id="RelayNode3-backto-LeafNode5" style="stroke:#A80036;stroke-width:1.0;"/><polygon fill="#A80036" points="282.21,306.71,277.3562,315.2797,281.7252,311.6864,285.3185,316.0554,282.21,306.71" style="stroke:#A80036;stroke-width:1.0;"/><!--MD5=[c79e659a7f79cc14faa6632408912b46]
reverse link RelayNode3 to LeafNode6--><path d="M305.01,310.75 C317.07,327.07 332.54,348.01 346,366.23 " fill="none" id="RelayNode3-backto-LeafNode6" style="stroke:#A80036;stroke-width:1.0;"/><polygon fill="#A80036" points="302.02,306.71,304.1595,316.3237,304.9948,310.7288,310.5896,311.564,302.02,306.71" style="stroke:#A80036;stroke-width:1.0;"/><!--MD5=[3c492cccf604e54806523003b0e57590]
@startuml entire

actor LeafNode1
actor LeafNode2
actor LeafNode3
actor LeafNode4
actor LeafNode5
actor LeafNode6

cloud Network {
    node RelayNode1
    node RelayNode2
    node RelayNode3

    RelayNode1 -down-> RelayNode2
    RelayNode1 -> RelayNode3
    RelayNode2 -> RelayNode3
    RelayNode2 -> RelayNode1
    RelayNode3 -> RelayNode1
    RelayNode3 -> RelayNode2
}

LeafNode1 -up-> RelayNode1
LeafNode2 -up-> RelayNode1

LeafNode3 -down-> RelayNode2
LeafNode4 -down-> RelayNode2

LeafNode5 -up-> RelayNode3
LeafNode6 -up-> RelayNode3

@enduml

PlantUML version 1.2022.0(Wed Jan 12 01:16:42 KST 2022)
(GPL source distribution)
Java Runtime: OpenJDK Runtime Environment
JVM: OpenJDK 64-Bit Server VM
Default Encoding: MS949
Language: ko
Country: KR
--></g></svg>