<?xml version="1.0" encoding="UTF-8" standalone="no"?><svg xmlns="http://www.w3.org/2000/svg" xmlns:xlink="http://www.w3.org/1999/xlink" contentScriptType="application/ecmascript" contentStyleType="text/css" height="144px" preserveAspectRatio="none" style="width:110px;height:144px;background:#FFFFFF;" version="1.1" viewBox="0 0 110 144" width="110px" zoomAndPan="magnify"><defs><filter height="300%" id="f1luqixo0e173n" width="300%" x="-1" y="-1"><feGaussianBlur result="blurOut" stdDeviation="2.0"/><feColorMatrix in="blurOut" result="blurOut2" type="matrix" values="0 0 0 0 0 0 0 0 0 0 0 0 0 0 0 0 0 0 .4 0"/><feOffset dx="4.0" dy="4.0" in="blurOut2" result="blurOut3"/><feBlend in="SourceGraphic" in2="blurOut3" mode="normal"/></filter></defs><g><!--MD5=[fbf70ae4a095e4de2380431a8d7bddf1]
class CTLog--><rect codeLine="2" fill="#FEFECE" filter="url(#f1luqixo0e173n)" height="123.5444" id="CTLog" style="stroke:#A80036;stroke-width:1.5;" width="89" x="7" y="7"/><ellipse cx="31" cy="23" fill="#ADD1B2" rx="11" ry="11" style="stroke:#A80036;stroke-width:1.0;"/><path d="M30.9063,16.3281 Q28.9844,16.3281 27.8125,18.1094 Q26.6094,19.9063 26.6094,22.9375 Q26.6094,26.3438 27.8281,28.125 Q28.9063,29.7813 30.7031,29.7813 Q32.4219,29.7813 33.3906,28.8594 Q34.4688,27.8125 34.625,25.5469 Q34.625,25.0938 34.3594,24.8281 Q34.1563,24.5781 33.7813,24.5469 Q33.4219,24.5469 33.1719,24.75 Q32.875,25.0156 32.875,25.4375 Q32.8438,26.7969 32.2656,27.5156 Q31.75,28.1875 30.8438,28.1875 Q29.7344,28.1875 29.0469,26.7813 Q28.3281,25.3125 28.3281,22.9063 Q28.3281,20.375 29.2031,19.0156 Q29.9375,17.9219 31.0313,17.9219 Q31.6406,17.9219 32.125,18.4375 Q32.6719,19.0313 32.7969,20.0625 Q32.8594,20.8594 33.7656,20.7344 Q34.6094,20.6094 34.5625,19.8594 Q34.375,18.3125 33.5781,17.4063 Q32.625,16.3281 30.9063,16.3281 Z " fill="#000000"/><text fill="#000000" font-family="sans-serif" font-size="12" lengthAdjust="spacing" textLength="37" x="47" y="28.6045">CTLog</text><line style="stroke:#A80036;stroke-width:1.5;" x1="8" x2="95" y1="39" y2="39"/><text fill="#000000" font-family="sans-serif" font-size="11" lengthAdjust="spacing" textLength="64" x="13" y="55.6919">HashID []byte</text><text fill="#000000" font-family="sans-serif" font-size="11" lengthAdjust="spacing" textLength="77" x="13" y="70.8008">PublicKey []byte</text><text fill="#000000" font-family="sans-serif" font-size="11" lengthAdjust="spacing" textLength="49" x="13" y="85.9097">Start int64</text><text fill="#000000" font-family="sans-serif" font-size="11" lengthAdjust="spacing" textLength="44" x="13" y="101.0186">End int64</text><text fill="#000000" font-family="sans-serif" font-size="11" lengthAdjust="spacing" textLength="45" x="13" y="116.1274">State int8</text><line style="stroke:#A80036;stroke-width:1.5;" x1="8" x2="95" y1="122.5444" y2="122.5444"/><!--MD5=[31789d65b7859d5e19e286a1c8b6e21a]
@startuml ctlog

class CTLog {
    HashID []byte
    PublicKey []byte
    Start int64
    End int64
    State int8
}

@enduml

PlantUML version 1.2022.0(Wed Jan 12 01:16:42 KST 2022)
(GPL source distribution)
Java Runtime: OpenJDK Runtime Environment
JVM: OpenJDK 64-Bit Server VM
Default Encoding: MS949
Language: ko
Country: KR
--></g></svg>